# xmcd
#
# Track frame offsets: 
#        150
#        46918
#        88718
#        110038
#        128345
#        133703
#        171440
#        192600
#        244273
#
# Disc length: 3330 seconds
#
# Revision: 1
# Processed by: cddbd v1.5.2PL0 Copyright (c) Steve Scherf et al.
# Submitted via: ExactAudioCopy v0.99pb5
#
DISCID=7f0d0009
DTITLE=Grencso Collective - Revival
DYEAR=1995
DGENRE=Jazz
TTITLE0=Woodpecker
TTITLE1=Embroidered Peasant Cloak
TTITLE2=Confession
TTITLE3=Macikodance
TTITLE4=The Winds Blows Wherever It Wants ...
TTITLE5=Trip
TTITLE6=Traditional
TTITLE7=Aubade
TTITLE8=The Winds Blows Wherever It Wants ... Part 2
EXTD=YEAR: 1995
EXTT0=
EXTT1=
EXTT2=
EXTT3=
EXTT4=
EXTT5=
EXTT6=
EXTT7=
EXTT8=
PLAYORDER=
